<svg width="28" height="28" viewBox="0 0 28 28" fill="none" xmlns="http://www.w3.org/2000/svg">
<g id="cdnlogo.com_twitter-icon">
<g id="Group 19977074">
<path id="Vector" d="M14 24.5C19.799 24.5 24.5 19.799 24.5 14C24.5 8.20101 19.799 3.5 14 3.5C8.20101 3.5 3.5 8.20101 3.5 14C3.5 19.799 8.20101 24.5 14 24.5Z" fill="#9CA5AF"/>
<path id="Vector_2" d="M21.0645 10.2877C20.5692 10.5075 20.0373 10.6561 19.478 10.7228C20.0488 10.381 20.4861 9.83938 20.6926 9.19472C20.1503 9.51678 19.5569 9.7435 18.9381 9.86505C18.4345 9.32825 17.7163 8.9931 16.9218 8.9931C15.3968 8.9931 14.16 10.2294 14.16 11.7553C14.16 11.9715 14.1844 12.1824 14.2312 12.3849C11.9355 12.2696 9.9002 11.1699 8.53787 9.49896C8.29999 9.90705 8.16383 10.3815 8.16383 10.8878C8.16383 11.846 8.65153 12.6914 9.3926 13.1866C8.9539 13.173 8.52483 13.0546 8.14126 12.8413V12.8762C8.14126 14.2146 9.09325 15.3306 10.357 15.5845C10.1248 15.6481 9.88119 15.6813 9.62916 15.6813C9.45096 15.6813 9.27808 15.6644 9.10918 15.6327C9.46069 16.7297 10.4808 17.5282 11.6892 17.5508C10.7438 18.2919 9.55264 18.7336 8.25888 18.7336C8.03605 18.7336 7.81581 18.7203 7.59961 18.6942C8.82221 19.4782 10.2738 19.9359 11.8338 19.9359C16.9143 19.9359 19.6929 15.7269 19.6929 12.0768C19.6929 11.957 19.6902 11.838 19.6844 11.7195C20.2258 11.3279 20.6931 10.8431 21.0645 10.2877Z" fill="white"/>
</g>
</g>
</svg>
