<svg width="28" height="28" viewBox="0 0 28 28" fill="none" xmlns="http://www.w3.org/2000/svg">
<g id="cdnlogo.com_twitter-icon">
<g id="Group 19977074">
<path id="Vector" d="M14 24.5C19.799 24.5 24.5 19.799 24.5 14C24.5 8.20101 19.799 3.5 14 3.5C8.20101 3.5 3.5 8.20101 3.5 14C3.5 19.799 8.20101 24.5 14 24.5Z" fill="#9CA5AF"/>
<path id="Vector_2" d="M18.9322 9.42125C18.0124 8.99087 17.0288 8.6781 16.0005 8.5C15.8743 8.72832 15.7267 9.0354 15.625 9.27969C14.5319 9.11531 13.4489 9.11531 12.3759 9.27969C12.2742 9.0354 12.1234 8.72832 11.9959 8.5C10.9666 8.6781 9.9819 8.99202 9.06205 9.42353C7.20672 12.2272 6.70377 14.9612 6.95524 17.6564C8.1858 18.5753 9.37835 19.1336 10.5508 19.4989C10.8403 19.1005 11.0984 18.6769 11.3209 18.2306C10.8973 18.0696 10.4915 17.871 10.1082 17.6404C10.2099 17.5651 10.3094 17.4863 10.4055 17.4052C12.7437 18.4989 15.2841 18.4989 17.5944 17.4052C17.6916 17.4863 17.7911 17.5651 17.8916 17.6404C17.5072 17.8721 17.1003 18.0708 16.6767 18.2318C16.8992 18.6769 17.1562 19.1016 17.4468 19.5C18.6204 19.1347 19.814 18.5765 21.0446 17.6564C21.3397 14.532 20.5405 11.8231 18.9322 9.42125ZM11.6394 15.9989C10.9375 15.9989 10.3619 15.3436 10.3619 14.5457C10.3619 13.7477 10.9252 13.0913 11.6394 13.0913C12.3536 13.0913 12.9292 13.7466 12.9169 14.5457C12.918 15.3436 12.3536 15.9989 11.6394 15.9989ZM16.3604 15.9989C15.6586 15.9989 15.0829 15.3436 15.0829 14.5457C15.0829 13.7477 15.6462 13.0913 16.3604 13.0913C17.0746 13.0913 17.6502 13.7466 17.6379 14.5457C17.6379 15.3436 17.0746 15.9989 16.3604 15.9989Z" fill="white"/>
</g>
</g>
</svg>
