<svg width="28" height="28" viewBox="0 0 28 28" fill="none" xmlns="http://www.w3.org/2000/svg">
<g id="Facebook_f_logo_(2021)">
<g id="Group 19977075">
<path id="Vector" d="M12.2675 24.395C7.28 23.5025 3.5 19.1975 3.5 14C3.5 8.225 8.225 3.5 14 3.5C19.775 3.5 24.5 8.225 24.5 14C24.5 19.1975 20.72 23.5025 15.7325 24.395L15.155 23.9225H12.845L12.2675 24.395Z" fill="#9CA5AF"/>
<path id="Vector_2" d="M18.095 16.9402L18.5675 14.0002H15.785V11.9527C15.785 11.1127 16.1 10.4827 17.36 10.4827H18.725V7.80515C17.99 7.70015 17.15 7.59515 16.415 7.59515C14 7.59515 12.32 9.06515 12.32 11.6902V14.0002H9.69501V16.9402H12.32V24.3427C12.8975 24.4477 13.475 24.5002 14.0525 24.5002C14.63 24.5002 15.2075 24.4477 15.785 24.3427V16.9402H18.095Z" fill="white"/>
</g>
</g>
</svg>
