<svg width="28" height="28" viewBox="0 0 28 28" fill="none" xmlns="http://www.w3.org/2000/svg">
<g id="Instagram">
<g id="Group 19977080">
<path id="Vector" d="M14.0034 3.66C9.68532 3.66 8.42246 3.66446 8.17698 3.68482C7.29084 3.75848 6.73943 3.898 6.13871 4.19709C5.67575 4.42698 5.31064 4.69346 4.9503 5.067C4.29405 5.74823 3.89632 6.58632 3.75234 7.58255C3.68234 8.06619 3.66198 8.16482 3.65784 10.6352C3.65625 11.4586 3.65784 12.5424 3.65784 13.996C3.65784 18.3105 3.66261 19.5721 3.6833 19.8171C3.75489 20.6794 3.89011 21.2219 4.17648 21.8153C4.72375 22.9512 5.76898 23.8039 7.00034 24.1221C7.42671 24.2319 7.89761 24.2923 8.50216 24.321C8.7583 24.3321 11.369 24.3401 13.9812 24.3401C16.5935 24.3401 19.2058 24.3369 19.4556 24.3242C20.1556 24.2912 20.562 24.2367 21.0115 24.1205C22.2508 23.8008 23.2769 22.9608 23.8353 21.8089C24.1161 21.2298 24.2585 20.6667 24.323 19.8494C24.337 19.6712 24.3428 16.8303 24.3428 13.9933C24.3428 11.1557 24.3365 8.32009 24.3225 8.14191C24.2573 7.31146 24.1149 6.75305 23.825 6.16282C23.5872 5.67966 23.3231 5.31884 22.9397 4.94991C22.2554 4.29637 21.4186 3.89864 20.4214 3.75482C19.9383 3.68498 19.842 3.6643 17.3697 3.66H14.0034Z" fill="#9CA5AF"/>
<path id="Vector_2" d="M13.9985 6.3649C11.9246 6.3649 11.6644 6.37397 10.8498 6.41104C10.0369 6.44826 9.48195 6.57697 8.99641 6.76581C8.49416 6.96085 8.06811 7.22176 7.64366 7.64638C7.21888 8.07083 6.95797 8.49688 6.76229 8.99897C6.57297 9.48467 6.44411 10.0397 6.40752 10.8524C6.37109 11.6669 6.36154 11.9274 6.36154 14.0013C6.36154 16.0752 6.37077 16.3347 6.40768 17.1492C6.44506 17.9621 6.57377 18.5171 6.76245 19.0026C6.95766 19.5049 7.21856 19.9309 7.64318 20.3554C8.06747 20.7801 8.49352 21.0417 8.99545 21.2367C9.48131 21.4256 10.0364 21.5543 10.8492 21.5915C11.6637 21.6286 11.9238 21.6376 13.9976 21.6376C16.0717 21.6376 16.3311 21.6286 17.1457 21.5915C17.9586 21.5543 18.5142 21.4256 19 21.2367C19.5021 21.0417 19.9275 20.7801 20.3518 20.3554C20.7766 19.9309 21.0375 19.5049 21.2332 19.0028C21.4209 18.5171 21.5498 17.962 21.588 17.1494C21.6246 16.3348 21.6341 16.0752 21.6341 14.0013C21.6341 11.9274 21.6246 11.6671 21.588 10.8525C21.5498 10.0396 21.4209 9.48467 21.2332 8.99913C21.0375 8.49688 20.7766 8.07083 20.3518 7.64638C19.9271 7.2216 19.5023 6.96069 18.9996 6.76581C18.5127 6.57697 17.9575 6.44826 17.1446 6.41104C16.33 6.37397 16.0707 6.3649 13.9962 6.3649H13.9985ZM13.3135 7.74104C13.5168 7.74072 13.7437 7.74104 13.9985 7.74104C16.0375 7.74104 16.2791 7.74835 17.0843 7.78494C17.8288 7.81899 18.2329 7.9434 18.5021 8.04792C18.8584 8.18633 19.1125 8.35178 19.3796 8.61906C19.6469 8.88633 19.8124 9.14088 19.9511 9.49724C20.0556 9.7661 20.1802 10.1702 20.2141 10.9147C20.2507 11.7197 20.2586 11.9616 20.2586 13.9995C20.2586 16.0375 20.2507 16.2793 20.2141 17.0843C20.18 17.8288 20.0556 18.2329 19.9511 18.5018C19.8127 18.8581 19.6469 19.1119 19.3796 19.379C19.1124 19.6463 18.8586 19.8117 18.5021 19.9501C18.2332 20.0551 17.8288 20.1792 17.0843 20.2133C16.2793 20.2499 16.0375 20.2578 13.9985 20.2578C11.9595 20.2578 11.7178 20.2499 10.9128 20.2133C10.1683 20.1789 9.76418 20.0545 9.49484 19.95C9.13847 19.8116 8.88393 19.6461 8.61666 19.3789C8.34938 19.1116 8.18393 18.8577 8.0452 18.5012C7.94068 18.2323 7.81611 17.8282 7.78222 17.0836C7.74563 16.2786 7.73831 16.0368 7.73831 13.9976C7.73831 11.9584 7.74563 11.7178 7.78222 10.9128C7.81627 10.1683 7.94068 9.76419 8.0452 9.49501C8.18361 9.13865 8.34938 8.8841 8.61666 8.61683C8.88393 8.34956 9.13847 8.1841 9.49484 8.04538C9.76402 7.94038 10.1683 7.81629 10.9128 7.78208C11.6173 7.75026 11.8903 7.74072 13.3135 7.73913V7.74104ZM18.0748 9.00899C17.5689 9.00899 17.1584 9.41897 17.1584 9.92503C17.1584 10.4309 17.5689 10.8414 18.0748 10.8414C18.5807 10.8414 18.9911 10.4309 18.9911 9.92503C18.9911 9.41913 18.5807 9.00867 18.0748 9.00867V9.00899ZM13.9985 10.0797C11.8328 10.0797 10.077 11.8356 10.077 14.0013C10.077 16.167 11.8328 17.9221 13.9985 17.9221C16.1642 17.9221 17.9195 16.167 17.9195 14.0013C17.9195 11.8356 16.1642 10.0797 13.9985 10.0797ZM13.9985 11.4558C15.4043 11.4558 16.544 12.5954 16.544 14.0013C16.544 15.407 15.4043 16.5467 13.9985 16.5467C12.5927 16.5467 11.4531 15.407 11.4531 14.0013C11.4531 12.5954 12.5927 11.4558 13.9985 11.4558Z" fill="white"/>
</g>
</g>
</svg>
