<svg width="28" height="28" viewBox="0 0 28 28" fill="none" xmlns="http://www.w3.org/2000/svg">
<g id="Tiktok">
<g id="Group 19977074">
<path id="Vector" d="M14 24.5C19.799 24.5 24.5 19.799 24.5 14C24.5 8.20101 19.799 3.5 14 3.5C8.20101 3.5 3.5 8.20101 3.5 14C3.5 19.799 8.20101 24.5 14 24.5Z" fill="#9CA5AF"/>
<path id="Vector_2" d="M18.0117 10.4727C17.9285 10.4297 17.8475 10.3826 17.769 10.3315C17.5408 10.1806 17.3315 10.0028 17.1457 9.80195C16.6809 9.27009 16.5073 8.73053 16.4433 8.35275H16.4459C16.3925 8.03919 16.4146 7.8363 16.4179 7.8363H14.3007V16.023C14.3007 16.1329 14.3008 16.2415 14.2961 16.3489C14.2961 16.3622 14.2948 16.3746 14.2941 16.3889C14.2941 16.3948 14.2941 16.401 14.2928 16.4072C14.2928 16.4087 14.2928 16.4103 14.2928 16.4118C14.2705 16.7055 14.1763 16.9893 14.0186 17.2381C13.8609 17.4869 13.6444 17.6931 13.3883 17.8386C13.1213 17.9905 12.8194 18.0702 12.5123 18.0698C11.5259 18.0698 10.7264 17.2654 10.7264 16.2721C10.7264 15.2787 11.5259 14.4744 12.5123 14.4744C12.699 14.4742 12.8846 14.5036 13.0621 14.5615L13.0647 12.4058C12.5258 12.3362 11.9782 12.379 11.4566 12.5316C10.9351 12.6842 10.4508 12.9432 10.0343 13.2923C9.66941 13.6094 9.36262 13.9877 9.12777 14.4102C9.0384 14.5643 8.70121 15.1835 8.66037 16.1884C8.63469 16.7587 8.80599 17.3497 8.88765 17.5939V17.599C8.93901 17.7429 9.13804 18.2336 9.4624 18.6473C9.72395 18.9792 10.033 19.2707 10.3795 19.5126V19.5074L10.3846 19.5126C11.4096 20.209 12.5459 20.1633 12.5459 20.1633C12.7427 20.1554 13.4016 20.1633 14.15 19.8087C14.98 19.4155 15.4526 18.8297 15.4526 18.8297C15.7544 18.4797 15.9945 18.0808 16.1624 17.6501C16.354 17.1465 16.4179 16.5425 16.4179 16.3011V11.9579C16.4436 11.9733 16.7857 12.1996 16.7857 12.1996C16.7857 12.1996 17.2785 12.5154 18.0474 12.7211C18.599 12.8675 19.3422 12.8983 19.3422 12.8983V10.7966C19.0818 10.8248 18.5531 10.7427 18.0117 10.4727Z" fill="white"/>
</g>
</g>
</svg>
